<svg width="180" height="184" viewBox="0 0 180 184" fill="none" xmlns="http://www.w3.org/2000/svg">
<path d="M115.722 35.5277C115.75 35.5053 115.773 35.4768 115.788 35.4443C115.804 35.4119 115.812 35.3763 115.812 35.3402L115.561 30.8162L117.727 29.4848C117.89 29.386 118.031 29.2558 118.144 29.1018C118.256 28.9477 118.337 28.7728 118.382 28.5872C118.427 28.4016 118.435 28.2089 118.405 28.0202C118.375 27.8315 118.309 27.6505 118.209 27.4878L117.393 26.137C117.192 25.8077 116.87 25.5718 116.496 25.4809C116.123 25.3901 115.729 25.4517 115.4 25.6523L115.285 25.7234L114.777 16.4297L125.061 11.0977C125.6 10.7682 126.068 10.3347 126.438 9.82215C126.809 9.30965 127.075 8.72834 127.221 8.11184L127.26 7.93735L128.648 5.72056C128.878 5.348 129 4.91819 129 4.47967C129 4.04114 128.878 3.61133 128.648 3.23877C128.421 2.86252 128.093 2.55779 127.702 2.35905C127.311 2.16031 126.873 2.0755 126.437 2.11423L123.866 2.34043C123.229 2.15774 122.561 2.11051 121.904 2.20176C121.248 2.293 120.618 2.52072 120.054 2.8704L110.58 9.59833L102.596 4.89328L102.712 4.8222C103.04 4.62024 103.274 4.29602 103.365 3.92053C103.455 3.54504 103.394 3.14885 103.194 2.81868L102.378 1.46793C102.176 1.13993 101.853 0.905139 101.48 0.814416C101.108 0.723692 100.714 0.784335 100.385 0.983208L98.2191 2.31457L94.3625 0.0267039C94.3298 0.00916577 94.2934 -1.51707e-06 94.2564 -1.51869e-06C94.2194 -1.52031e-06 94.183 0.00916577 94.1504 0.0267039L90.4737 1.93326C90.4388 1.95269 90.4093 1.98064 90.388 2.01452C90.3667 2.0484 90.3541 2.08712 90.3516 2.12714C90.342 2.16533 90.342 2.2053 90.3516 2.24349C90.3728 2.27576 90.4015 2.30237 90.4351 2.32104L92.3249 3.38096L93.6811 5.09365L92.7041 5.6947C92.6796 5.7099 92.6582 5.72983 92.6414 5.75336C92.6245 5.77689 92.6124 5.80354 92.6058 5.83178C92.5993 5.86002 92.5983 5.88928 92.6031 5.91789C92.6078 5.9465 92.6181 5.97388 92.6334 5.99846L92.7427 6.17942L91.8942 6.70292C91.7515 6.79241 91.6494 6.93455 91.6098 7.09887C91.5701 7.26318 91.5961 7.43659 91.6821 7.58187L92.8969 9.58539C92.986 9.72885 93.1273 9.83153 93.2908 9.8714C93.4542 9.91127 93.6266 9.88517 93.7711 9.79868L94.6196 9.27518L94.7289 9.45614C94.7595 9.50581 94.8081 9.5416 94.8644 9.55606C94.9207 9.57052 94.9804 9.56251 95.031 9.5337L96.4772 8.64181L102.05 15.6929L93.7583 21.6259L88.3268 19.3509L86 20.553L89.6445 24.6311L88.1533 26.3697L89.6767 28.8838L91.8557 28.2827L93.784 33.3949L95.9116 31.8696L96.3872 25.969L105.611 21.1735L109.114 29.4783L107.661 30.3702C107.613 30.3998 107.577 30.4475 107.563 30.5031C107.548 30.5586 107.556 30.6177 107.584 30.6675L107.7 30.855L106.845 31.3785C106.705 31.4689 106.606 31.6103 106.567 31.773C106.529 31.9357 106.555 32.107 106.639 32.251L107.854 34.2545C107.943 34.3962 108.083 34.4977 108.245 34.5374C108.407 34.5772 108.578 34.5522 108.722 34.4677L109.577 33.9507L109.686 34.1317C109.701 34.1564 109.721 34.1778 109.745 34.1948C109.768 34.2117 109.794 34.2239 109.823 34.2305C109.851 34.2371 109.88 34.238 109.908 34.2333C109.937 34.2285 109.964 34.2182 109.988 34.2028L110.965 33.6082L111.859 35.5988L111.929 37.7768C111.933 37.8151 111.944 37.8523 111.962 37.8866C111.985 37.9209 112.016 37.9496 112.052 37.9707C112.086 37.9899 112.125 38 112.164 38C112.203 38 112.242 37.9899 112.277 37.9707L115.722 35.5277ZM98.6948 2.56664L100.623 1.36452C100.852 1.22348 101.128 1.17965 101.39 1.24265C101.651 1.30565 101.877 1.47035 102.018 1.70061L102.841 3.05136C102.979 3.28321 103.02 3.56037 102.957 3.82286C102.893 4.08534 102.729 4.31202 102.5 4.45381L102.185 4.64771L100.424 3.60716L98.6948 2.56664ZM93.5976 9.42382C93.553 9.45044 93.5 9.45858 93.4496 9.44652C93.3992 9.43445 93.3554 9.40313 93.3276 9.35918L92.1128 7.34922C92.0988 7.32728 92.0894 7.30274 92.085 7.27707C92.0807 7.25139 92.0816 7.22511 92.0876 7.19977C92.0936 7.17444 92.1046 7.15058 92.12 7.12962C92.1353 7.10866 92.1548 7.09102 92.177 7.07776L93.0255 6.55427L94.4525 8.90032L93.5976 9.42382ZM95.0502 9.04251L93.1734 5.95322L94.009 5.44264L96.2651 8.29927L95.0502 9.04251ZM96.76 8.22172L94.2339 4.99024L92.7041 3.05136C92.6859 3.0287 92.6642 3.00907 92.6398 2.99319L91.0651 2.11422L94.2789 0.446772L100.064 3.84629L102.127 5.0678L110.252 9.85684L102.449 15.3891L96.76 8.22172ZM115.625 26.0401C115.855 25.899 116.13 25.8552 116.392 25.9182C116.653 25.9812 116.879 26.1459 117.02 26.3761L117.837 27.7269C117.977 27.9575 118.02 28.2347 117.958 28.4976C117.895 28.7605 117.731 28.9877 117.502 29.1293L115.535 30.3315L115.426 28.2827L115.31 26.2275L115.625 26.0401ZM126.482 2.5537C126.838 2.51845 127.196 2.58611 127.515 2.74869C127.834 2.91127 128.1 3.16202 128.282 3.47145C128.472 3.77414 128.573 4.12485 128.573 4.4829C128.573 4.84095 128.472 5.19166 128.282 5.49435L127.362 6.96791L127.362 6.90327C127.362 6.73449 127.35 6.56597 127.324 6.39916C127.33 6.34981 127.33 6.29986 127.324 6.25051C127.298 6.06061 127.26 5.87273 127.208 5.68824L127.208 5.63654C127.157 5.46553 127.097 5.29727 127.028 5.13243L126.964 4.99669C126.887 4.81578 126.797 4.64081 126.694 4.4732C126.591 4.30516 126.475 4.14359 126.36 3.98848L126.263 3.87215C126.148 3.73458 126.026 3.60301 125.897 3.47792L125.865 3.44559C125.722 3.31599 125.572 3.19513 125.415 3.08367L125.299 2.99965C125.159 2.90286 125.013 2.81438 124.862 2.73466C124.846 2.72161 124.829 2.71074 124.811 2.70236L126.482 2.5537ZM123.769 2.77344C124.817 3.08074 125.712 3.77278 126.276 4.71232C126.844 5.65099 127.041 6.76927 126.829 7.84686L126.79 8.02782C126.52 9.15798 125.815 10.1342 124.83 10.7423L114.456 16.1324L105.695 20.6564L92.1256 27.714L91.5343 26.7381C93.1412 25.7471 94.7481 24.7604 96.3551 23.778C96.495 23.6886 96.5951 23.5483 96.6346 23.3864C96.674 23.2245 96.6497 23.0535 96.5667 22.9092C96.4838 22.7649 96.3486 22.6584 96.1893 22.6119C96.0301 22.5655 95.8592 22.5827 95.7123 22.6599L90.8851 25.6135L90.313 24.6699L110.728 10.0701L110.798 10.0249L120.221 3.23232C120.744 2.90984 121.328 2.70173 121.936 2.62155C122.544 2.54137 123.162 2.59093 123.75 2.76699L123.769 2.77344ZM86.7585 20.6823L88.404 19.8292L93.3276 21.8909L90.0495 24.3145L90.0495 24.2627L90.0173 24.3015L86.7585 20.6823ZM89.9338 28.3732L88.7446 26.4343L89.9595 25.0189L90.4801 25.8849C90.3327 25.9758 90.2271 26.1218 90.1868 26.2909C90.1464 26.46 90.1744 26.6383 90.2648 26.7865C90.3551 26.9348 90.5004 27.0409 90.6685 27.0815C90.8367 27.1221 91.014 27.0939 91.1615 27.003L91.7078 27.9014L89.9338 28.3732ZM95.5645 31.6047L94.0604 32.684L92.3313 28.1599L92.3827 28.1599L92.3827 28.1147L96.0208 26.2921L95.5645 31.6047ZM108.568 34.0735C108.522 34.0996 108.469 34.1067 108.418 34.0934C108.368 34.0801 108.325 34.0474 108.298 34.0024L107.077 31.9989C107.063 31.9761 107.054 31.9507 107.05 31.9243C107.046 31.8978 107.047 31.8709 107.054 31.845C107.06 31.8191 107.072 31.7947 107.088 31.7735C107.104 31.7522 107.124 31.7343 107.147 31.721L107.996 31.204L109.423 33.55L108.568 34.0735ZM110.014 33.6922L108.144 30.6029L109.358 29.8532L109.5 30.1634L110.856 33.1816L110.014 33.6922ZM112.367 35.5147L112.367 35.4372L111.357 33.1752L109.68 29.4525L106.08 20.9796L113.485 17.1018L114.359 16.6429L114.88 26.1047L115.015 28.4701L115.381 35.2304L112.437 37.3373L112.367 35.5147Z" fill="#999999"/>
<path d="M159.24 148.971C159.284 148.937 159.319 148.893 159.343 148.842C159.367 148.792 159.38 148.737 159.38 148.681L158.99 141.681L162.36 139.621C162.613 139.468 162.833 139.267 163.008 139.029C163.183 138.79 163.308 138.52 163.378 138.232C163.448 137.945 163.46 137.647 163.414 137.355C163.368 137.063 163.265 136.783 163.11 136.531L161.84 134.441C161.527 133.932 161.026 133.567 160.445 133.426C159.864 133.286 159.251 133.381 158.74 133.691L158.56 133.801L157.77 119.421L173.77 111.171C174.607 110.661 175.336 109.991 175.912 109.198C176.489 108.405 176.903 107.505 177.13 106.551L177.19 106.281L179.35 102.851C179.708 102.275 179.897 101.61 179.897 100.931C179.897 100.253 179.708 99.5877 179.35 99.0113C178.996 98.4291 178.486 97.9576 177.878 97.6501C177.27 97.3426 176.588 97.2114 175.91 97.2713L171.91 97.6213C170.919 97.3386 169.879 97.2656 168.858 97.4067C167.837 97.5479 166.857 97.9003 165.98 98.4413L151.24 108.851L138.82 101.571L139 101.461C139.509 101.149 139.874 100.647 140.015 100.066C140.156 99.4852 140.06 98.8722 139.75 98.3613L138.48 96.2713C138.166 95.7638 137.664 95.4005 137.084 95.2601C136.504 95.1198 135.891 95.2136 135.38 95.5213L132.01 97.5813L126.01 94.0413C125.959 94.0142 125.902 94 125.845 94C125.787 94 125.731 94.0142 125.68 94.0413L119.96 96.9913C119.906 97.0214 119.86 97.0646 119.827 97.117C119.793 97.1695 119.774 97.2294 119.77 97.2913C119.755 97.3504 119.755 97.4122 119.77 97.4713C119.803 97.5212 119.847 97.5624 119.9 97.5913L122.84 99.2313L124.95 101.881L123.43 102.811C123.392 102.835 123.358 102.866 123.332 102.902C123.306 102.938 123.287 102.98 123.277 103.023C123.267 103.067 123.265 103.112 123.273 103.157C123.28 103.201 123.296 103.243 123.32 103.281L123.49 103.561L122.17 104.371C121.948 104.51 121.789 104.73 121.727 104.984C121.666 105.238 121.706 105.506 121.84 105.731L123.73 108.831C123.868 109.053 124.088 109.212 124.342 109.274C124.597 109.336 124.865 109.295 125.09 109.161L126.41 108.351L126.58 108.631C126.628 108.708 126.703 108.764 126.791 108.786C126.878 108.808 126.971 108.796 127.05 108.751L129.3 107.371L137.97 118.281L125.07 127.461L116.62 123.941L113 125.801L118.67 132.111L116.35 134.801L118.72 138.691L122.11 137.761L125.11 145.671L128.42 143.311L129.16 134.181L143.51 126.761L148.96 139.611L146.7 140.991C146.624 141.037 146.569 141.111 146.546 141.197C146.524 141.283 146.536 141.374 146.58 141.451L146.76 141.741L145.43 142.551C145.212 142.691 145.057 142.91 144.998 143.162C144.938 143.414 144.978 143.679 145.11 143.901L147 147.001C147.138 147.221 147.356 147.378 147.608 147.439C147.86 147.501 148.126 147.462 148.35 147.331L149.68 146.531L149.85 146.811C149.873 146.85 149.904 146.883 149.941 146.909C149.977 146.935 150.018 146.954 150.062 146.964C150.106 146.974 150.151 146.976 150.195 146.969C150.239 146.961 150.282 146.945 150.32 146.921L151.84 146.001L153.23 149.081L153.34 152.451C153.346 152.511 153.363 152.568 153.39 152.621C153.426 152.674 153.474 152.719 153.53 152.751C153.583 152.781 153.644 152.797 153.705 152.797C153.766 152.797 153.826 152.781 153.88 152.751L159.24 148.971ZM132.75 97.9713L135.75 96.1113C136.107 95.8931 136.536 95.8252 136.942 95.9227C137.349 96.0202 137.701 96.275 137.92 96.6313L139.2 98.7213C139.415 99.0801 139.479 99.5089 139.38 99.915C139.281 100.321 139.026 100.672 138.67 100.891L138.18 101.191L135.44 99.5813L132.75 97.9713ZM124.82 108.581C124.751 108.622 124.668 108.635 124.59 108.616C124.511 108.598 124.443 108.549 124.4 108.481L122.51 105.371C122.488 105.337 122.473 105.299 122.467 105.26C122.46 105.22 122.461 105.179 122.471 105.14C122.48 105.101 122.497 105.064 122.521 105.032C122.545 104.999 122.575 104.972 122.61 104.951L123.93 104.141L126.15 107.771L124.82 108.581ZM127.08 107.991L124.16 103.211L125.46 102.421L128.97 106.841L127.08 107.991ZM129.74 106.721L125.81 101.721L123.43 98.7213C123.401 98.6863 123.368 98.6559 123.33 98.6313L120.88 97.2713L125.88 94.6913L134.88 99.9513L138.09 101.841L150.73 109.251L138.59 117.811L129.74 106.721ZM159.09 134.291C159.447 134.073 159.876 134.005 160.282 134.103C160.689 134.2 161.041 134.455 161.26 134.811L162.53 136.901C162.748 137.258 162.816 137.687 162.718 138.094C162.621 138.501 162.366 138.852 162.01 139.071L158.95 140.931L158.78 137.761L158.6 134.581L159.09 134.291ZM175.98 97.9513C176.533 97.8968 177.091 98.0014 177.587 98.253C178.083 98.5045 178.497 98.8925 178.78 99.3713C179.076 99.8397 179.233 100.382 179.233 100.936C179.233 101.49 179.076 102.033 178.78 102.501L177.35 104.781L177.35 104.681C177.35 104.42 177.33 104.159 177.29 103.901C177.3 103.825 177.3 103.748 177.29 103.671C177.25 103.377 177.19 103.087 177.11 102.801L177.11 102.721C177.03 102.457 176.936 102.196 176.83 101.941L176.73 101.731C176.61 101.451 176.47 101.181 176.31 100.921C176.15 100.661 175.97 100.411 175.79 100.171L175.64 99.9913C175.46 99.7784 175.27 99.5749 175.07 99.3813L175.02 99.3313C174.798 99.1308 174.564 98.9438 174.32 98.7713L174.14 98.6413C173.921 98.4915 173.694 98.3546 173.46 98.2313C173.436 98.2111 173.409 98.1943 173.38 98.1813L175.98 97.9513ZM171.76 98.2913C173.39 98.7668 174.782 99.8375 175.66 101.291C176.543 102.744 176.849 104.474 176.52 106.141L176.46 106.421C176.04 108.17 174.943 109.68 173.41 110.621L157.27 118.961L143.64 125.961L122.53 136.881L121.61 135.371C124.11 133.838 126.61 132.311 129.11 130.791C129.327 130.653 129.483 130.436 129.545 130.185C129.606 129.935 129.568 129.67 129.439 129.447C129.31 129.224 129.1 129.059 128.852 128.987C128.604 128.915 128.338 128.942 128.11 129.061L120.6 133.631L119.71 132.171L151.47 109.581L151.58 109.511L166.24 99.0013C167.053 98.5023 167.962 98.1803 168.908 98.0563C169.854 97.9322 170.816 98.0089 171.73 98.2813L171.76 98.2913ZM114.18 126.001L116.74 124.681L124.4 127.871L119.3 131.621L119.3 131.541L119.25 131.601L114.18 126.001ZM119.12 137.901L117.27 134.901L119.16 132.711L119.97 134.051C119.74 134.192 119.576 134.418 119.513 134.679C119.451 134.941 119.494 135.217 119.635 135.446C119.775 135.676 120.001 135.84 120.263 135.903C120.525 135.966 120.8 135.922 121.03 135.781L121.88 137.171L119.12 137.901ZM127.88 142.901L125.54 144.571L122.85 137.571L122.93 137.571L122.93 137.501L128.59 134.681L127.88 142.901ZM148.11 146.721C148.039 146.762 147.956 146.773 147.877 146.752C147.799 146.732 147.732 146.681 147.69 146.611L145.79 143.511C145.768 143.476 145.754 143.437 145.748 143.396C145.742 143.355 145.744 143.313 145.754 143.273C145.764 143.233 145.783 143.195 145.808 143.162C145.833 143.13 145.864 143.102 145.9 143.081L147.22 142.281L149.44 145.911L148.11 146.721ZM150.36 146.131L147.45 141.351L149.34 140.191L149.56 140.671L151.67 145.341L150.36 146.131ZM154.02 148.951L154.02 148.831L152.45 145.331L149.84 139.571L144.24 126.461L155.76 120.461L157.12 119.751L157.93 134.391L158.14 138.051L158.71 148.511L154.13 151.771L154.02 148.951Z" fill="#999999"/>
<path d="M10.0145 144.29L9.81 143.527C9.79888 143.486 9.7962 143.442 9.80211 143.4C9.80802 143.357 9.82241 143.317 9.84442 143.28C9.86643 143.243 9.89561 143.211 9.93023 143.186C9.96484 143.16 10.0042 143.142 10.0459 143.133C10.0873 143.121 10.1306 143.119 10.173 143.125C10.2155 143.131 10.2563 143.145 10.2931 143.167C10.3299 143.189 10.362 143.218 10.3873 143.253C10.4126 143.287 10.4306 143.327 10.4404 143.368C10.6087 143.996 10.7743 144.614 10.9374 145.223C10.9623 145.305 10.9541 145.394 10.9146 145.47C10.8751 145.547 10.8074 145.604 10.7259 145.632C10.6421 145.654 10.5528 145.644 10.4764 145.603C10.3999 145.562 10.3421 145.493 10.3147 145.411L10.0145 144.29ZM9.41742 141.676C9.24918 141.048 9.18721 140.391 9.09625 139.743C9.09011 139.701 9.09238 139.658 9.10294 139.617C9.11349 139.576 9.13212 139.537 9.15774 139.503C9.18335 139.47 9.21545 139.441 9.25215 139.42C9.28885 139.398 9.32943 139.385 9.37152 139.379C9.41351 139.373 9.45631 139.375 9.49742 139.386C9.53853 139.396 9.57713 139.415 9.61097 139.441C9.64481 139.466 9.67322 139.498 9.69454 139.535C9.71586 139.572 9.72966 139.612 9.73515 139.654C9.82351 140.293 9.93121 140.927 10.0556 141.546C10.0704 141.631 10.0515 141.718 10.0028 141.789C9.95418 141.86 9.87967 141.909 9.7952 141.926C9.75392 141.935 9.71138 141.935 9.67003 141.927C9.62868 141.919 9.58933 141.903 9.55423 141.879C9.51914 141.856 9.48899 141.826 9.46551 141.791C9.44203 141.756 9.42568 141.717 9.41742 141.676ZM10.9212 147.288C10.8996 147.209 10.9076 147.126 10.9435 147.054C10.9794 146.981 11.0407 146.924 11.1159 146.894C11.1975 146.866 11.2866 146.872 11.3643 146.909C11.442 146.946 11.502 147.012 11.5316 147.093C11.7119 147.573 11.8967 148.03 12.1085 148.512L12.2552 148.866C12.2729 148.905 12.2827 148.947 12.284 148.99C12.2853 149.032 12.2781 149.075 12.2627 149.115C12.2473 149.154 12.2241 149.191 12.1945 149.221C12.1648 149.252 12.1294 149.277 12.0901 149.293C12.0125 149.326 11.9251 149.327 11.8469 149.295C11.7687 149.264 11.706 149.203 11.6725 149.126L11.5162 148.774C11.3069 148.302 11.1222 147.845 10.9289 147.317L10.9212 147.288ZM8.82666 137.848L8.81371 137.8C8.75691 137.163 8.7046 136.504 8.67419 135.849C8.67137 135.765 8.70118 135.682 8.75745 135.619C8.81373 135.556 8.89215 135.517 8.97652 135.51C9.01972 135.507 9.06311 135.512 9.10402 135.526C9.14494 135.541 9.18254 135.563 9.21455 135.592C9.24657 135.621 9.27233 135.657 9.29028 135.696C9.30822 135.736 9.31797 135.778 9.31894 135.822C9.35643 136.464 9.39391 137.106 9.46038 137.74C9.46784 137.825 9.4415 137.909 9.38711 137.974C9.33272 138.039 9.25472 138.08 9.17028 138.087C9.10022 138.083 9.03335 138.057 8.97999 138.011C8.92663 137.966 8.88973 137.904 8.87496 137.835L8.82666 137.848ZM12.4798 150.825C12.4616 150.753 12.4688 150.678 12.4999 150.611C12.531 150.544 12.5843 150.49 12.6507 150.458C12.6881 150.437 12.7293 150.425 12.7719 150.421C12.8144 150.417 12.8573 150.422 12.8978 150.435C12.9383 150.449 12.9757 150.47 13.0074 150.499C13.0392 150.527 13.0647 150.562 13.0824 150.601C13.3659 151.157 13.6738 151.726 14.0011 152.291C14.0218 152.328 14.0351 152.368 14.0402 152.41C14.0453 152.451 14.0421 152.494 14.0309 152.534C14.0196 152.575 14.0005 152.613 13.9746 152.646C13.9487 152.679 13.9165 152.706 13.8799 152.727C13.8048 152.77 13.7161 152.781 13.6327 152.759C13.5494 152.737 13.478 152.683 13.4339 152.609C13.1067 152.044 12.7961 151.465 12.5075 150.89L12.4798 150.825ZM8.62814 133.978L8.60744 133.9C8.61118 133.257 8.61233 132.605 8.64245 131.945C8.646 131.86 8.68293 131.78 8.74516 131.723C8.8074 131.665 8.88984 131.635 8.97446 131.638C9.01678 131.639 9.05859 131.648 9.09729 131.665C9.13598 131.682 9.17074 131.707 9.19945 131.738C9.22815 131.769 9.25018 131.806 9.26418 131.846C9.27818 131.886 9.28385 131.928 9.28084 131.97C9.26745 132.616 9.25404 133.261 9.25737 133.892C9.25917 133.934 9.25226 133.976 9.23703 134.016C9.2218 134.056 9.19862 134.092 9.16888 134.122C9.13914 134.152 9.1035 134.176 9.06416 134.192C9.02483 134.208 8.98262 134.216 8.94019 134.215C8.87547 134.206 8.81513 134.177 8.76777 134.132C8.72041 134.088 8.68843 134.029 8.67643 133.965L8.62814 133.978ZM14.4014 154.171C14.3844 154.104 14.3889 154.033 14.4144 153.969C14.4399 153.905 14.485 153.85 14.5433 153.812C14.615 153.767 14.7016 153.752 14.7842 153.771C14.8668 153.79 14.9387 153.84 14.9841 153.912C15.3255 154.452 15.6862 154.987 16.0637 155.507C16.1106 155.578 16.129 155.664 16.1151 155.749C16.1012 155.833 16.0562 155.909 15.9888 155.962C15.9169 156.011 15.8284 156.029 15.7427 156.014C15.657 155.998 15.581 155.949 15.5314 155.877C15.1539 155.357 14.788 154.803 14.4466 154.263L14.4014 154.171ZM8.76649 130.089L8.73802 129.983C8.79265 129.337 8.85692 128.688 8.93345 128.046C8.93808 128.004 8.95109 127.963 8.97174 127.926C8.99238 127.889 9.02023 127.856 9.05367 127.83C9.08711 127.803 9.12546 127.784 9.16648 127.773C9.20749 127.761 9.25036 127.758 9.29256 127.764C9.33486 127.768 9.3758 127.781 9.413 127.802C9.45021 127.823 9.48292 127.851 9.50923 127.884C9.53555 127.917 9.55492 127.956 9.56624 127.997C9.57755 128.038 9.58058 128.081 9.57512 128.123C9.49601 128.755 9.42914 129.394 9.38417 130.038C9.37647 130.122 9.33562 130.2 9.2706 130.254C9.20558 130.308 9.1217 130.335 9.03731 130.327C8.98356 130.312 8.93498 130.282 8.89672 130.241C8.85845 130.201 8.83191 130.15 8.81995 130.096L8.76649 130.089ZM16.6449 157.328C16.6296 157.268 16.6314 157.204 16.6501 157.144C16.6688 157.084 16.7036 157.031 16.7508 156.989C16.7858 156.948 16.8304 156.916 16.8808 156.896C16.9311 156.876 16.9855 156.869 17.0393 156.875C17.0931 156.881 17.1446 156.9 17.1892 156.931C17.2338 156.961 17.2702 157.003 17.2952 157.051C17.6868 157.546 18.0906 158.049 18.5112 158.536C18.5391 158.568 18.5603 158.605 18.5737 158.646C18.5871 158.686 18.5924 158.728 18.5893 158.771C18.5862 158.813 18.5747 158.854 18.5555 158.892C18.5364 158.93 18.5099 158.963 18.4776 158.991C18.4121 159.044 18.3284 159.071 18.2438 159.065C18.1592 159.058 18.0803 159.02 18.0234 158.957C17.6003 158.46 17.1842 157.95 16.7803 157.447L16.6449 157.328ZM9.23533 126.237C9.21507 126.198 9.20359 126.155 9.20168 126.111C9.30977 125.471 9.42753 124.829 9.55754 124.194C9.56519 124.152 9.58104 124.112 9.60417 124.077C9.6273 124.041 9.65724 124.011 9.69227 123.987C9.72729 123.963 9.76671 123.946 9.80821 123.938C9.84972 123.929 9.8925 123.929 9.93407 123.937C10.0194 123.955 10.0945 124.005 10.143 124.077C10.1915 124.15 10.2094 124.238 10.1928 124.324C10.0602 124.949 9.9399 125.582 9.83887 126.209C9.83309 126.251 9.81914 126.291 9.79783 126.328C9.77651 126.364 9.74825 126.396 9.71465 126.421C9.68105 126.446 9.64277 126.465 9.60203 126.475C9.56129 126.486 9.51886 126.488 9.47719 126.482C9.42886 126.461 9.38651 126.427 9.35372 126.386C9.32093 126.344 9.29866 126.295 9.28881 126.243L9.23533 126.237ZM19.1806 160.262C19.1655 160.207 19.1651 160.15 19.1795 160.095C19.1939 160.04 19.2226 159.99 19.2627 159.95C19.2933 159.92 19.3296 159.897 19.3694 159.881C19.4092 159.865 19.4517 159.858 19.4945 159.859C19.5373 159.86 19.5794 159.87 19.6183 159.887C19.6573 159.905 19.6923 159.93 19.7213 159.962C20.1657 160.422 20.6198 160.881 21.1169 161.306C21.1768 161.368 21.2112 161.45 21.2131 161.536C21.215 161.622 21.1843 161.705 21.1271 161.77C21.0979 161.8 21.063 161.824 21.0243 161.841C20.9857 161.858 20.9441 161.867 20.902 161.868C20.8598 161.868 20.818 161.861 20.7788 161.845C20.7396 161.83 20.7039 161.807 20.6736 161.777C20.2029 161.334 19.7463 160.866 19.2677 160.394C19.2367 160.36 19.2122 160.321 19.1954 160.279L19.1806 160.262ZM10.0109 122.447C9.98284 122.4 9.96849 122.347 9.96945 122.292C10.131 121.659 10.2952 121.035 10.498 120.401C10.525 120.319 10.5819 120.251 10.6573 120.21C10.7326 120.168 10.8209 120.157 10.9042 120.178C10.9858 120.205 11.0541 120.262 11.0954 120.338C11.1367 120.413 11.148 120.501 11.1269 120.584C10.9408 121.204 10.7741 121.818 10.5906 122.447C10.5812 122.488 10.5635 122.528 10.5385 122.563C10.5136 122.597 10.482 122.627 10.4455 122.649C10.409 122.671 10.3684 122.686 10.3261 122.693C10.2838 122.699 10.2407 122.697 10.1992 122.686C10.1655 122.656 10.1387 122.619 10.1204 122.577C10.1021 122.536 10.0929 122.491 10.0933 122.445L10.0109 122.447ZM21.9692 162.942C21.9563 162.889 21.9564 162.835 21.9694 162.782C21.9825 162.73 22.0082 162.682 22.0442 162.642C22.103 162.581 22.1827 162.544 22.2674 162.538C22.3522 162.533 22.4359 162.559 22.5021 162.612C22.9774 163.034 23.4816 163.447 23.9807 163.842C24.0454 163.896 24.0866 163.974 24.0957 164.058C24.1048 164.143 24.0811 164.227 24.0295 164.294C24.0039 164.328 23.9719 164.356 23.9353 164.377C23.8988 164.398 23.8584 164.412 23.8166 164.417C23.7747 164.423 23.7322 164.42 23.6915 164.409C23.6508 164.398 23.6127 164.379 23.5793 164.353C23.068 163.952 22.5612 163.528 22.0737 163.1C22.03 163.063 21.9987 163.014 21.984 162.958L21.9692 162.942ZM11.1511 118.704C11.1356 118.641 11.1396 118.575 11.1624 118.515C11.3704 117.9 11.6003 117.29 11.8327 116.689C11.8474 116.648 11.8703 116.61 11.9001 116.579C11.9298 116.547 11.9657 116.521 12.0056 116.504C12.0455 116.486 12.0886 116.477 12.1321 116.477C12.1757 116.477 12.2188 116.485 12.2589 116.502C12.298 116.518 12.3335 116.542 12.3634 116.572C12.3934 116.601 12.4171 116.637 12.4334 116.676C12.4496 116.715 12.4579 116.756 12.4579 116.799C12.4579 116.841 12.4496 116.883 12.4334 116.922C12.2009 117.522 11.9677 118.082 11.7798 118.732C11.7491 118.812 11.6889 118.876 11.6118 118.913C11.5346 118.949 11.4465 118.953 11.3658 118.926C11.3184 118.911 11.2755 118.884 11.2407 118.848C11.2059 118.812 11.1802 118.769 11.1659 118.721L11.1511 118.704ZM25.0633 165.332C25.0516 165.286 25.0501 165.237 25.0589 165.19C25.0678 165.143 25.0867 165.099 25.1145 165.06C25.1394 165.026 25.1708 164.997 25.2067 164.975C25.2427 164.954 25.2826 164.939 25.3242 164.933C25.3658 164.926 25.4082 164.928 25.449 164.938C25.4899 164.949 25.5283 164.967 25.5621 164.991C26.0727 165.352 26.6227 165.743 27.1545 166.066C27.2283 166.11 27.282 166.181 27.3042 166.264C27.3264 166.347 27.3154 166.435 27.2736 166.51C27.2527 166.548 27.2245 166.581 27.1907 166.607C27.1569 166.634 27.1181 166.653 27.0766 166.664C27.0352 166.675 26.9919 166.678 26.9494 166.672C26.9069 166.666 26.866 166.651 26.8292 166.629C26.28 166.28 25.7301 165.889 25.2124 165.541C25.1734 165.517 25.1397 165.485 25.1136 165.448C25.0875 165.41 25.0695 165.367 25.0607 165.323L25.0633 165.332ZM12.5748 115.093C12.5551 115.022 12.5607 114.948 12.5907 114.881C12.8547 114.283 13.1432 113.698 13.4221 113.116C13.4429 113.078 13.4711 113.045 13.5049 113.019C13.5388 112.993 13.5776 112.973 13.619 112.962C13.6605 112.951 13.7038 112.948 13.7463 112.954C13.7888 112.96 13.8296 112.975 13.8664 112.997C13.9391 113.039 13.9922 113.109 14.014 113.19C14.0358 113.272 14.0246 113.358 13.9829 113.432C13.7014 114.004 13.4303 114.615 13.1585 115.185C13.116 115.257 13.0465 115.31 12.9651 115.332C12.8838 115.354 12.7971 115.343 12.7239 115.301C12.6883 115.281 12.6571 115.254 12.6324 115.221C12.6077 115.189 12.5898 115.152 12.58 115.112L12.5748 115.093ZM28.3614 167.44C28.3445 167.356 28.3576 167.268 28.3984 167.192C28.4441 167.12 28.5151 167.068 28.5974 167.046C28.6797 167.024 28.7672 167.034 28.8428 167.073C29.3939 167.392 29.9643 167.705 30.5296 167.998C30.6023 168.041 30.6554 168.11 30.6772 168.192C30.699 168.273 30.6878 168.36 30.6461 168.433C30.6018 168.504 30.5324 168.555 30.4517 168.577C30.371 168.598 30.2852 168.589 30.2114 168.549C29.6242 168.251 29.0151 167.949 28.4904 167.613C28.4298 167.571 28.3845 167.51 28.3614 167.44ZM14.3505 111.635C14.3295 111.553 14.3392 111.466 14.3779 111.39C14.7006 110.817 15.0355 110.251 15.3756 109.704C15.4196 109.63 15.4907 109.577 15.5736 109.554C15.6566 109.532 15.7449 109.543 15.8199 109.585C15.8927 109.628 15.9457 109.697 15.9675 109.778C15.9893 109.86 15.9781 109.946 15.9364 110.02C15.606 110.564 15.2781 111.117 14.9625 111.678C14.9185 111.752 14.8475 111.806 14.7645 111.828C14.6815 111.85 14.5932 111.839 14.5182 111.797C14.4747 111.789 14.4337 111.771 14.398 111.745C14.3623 111.718 14.3329 111.684 14.3119 111.646L14.3505 111.635ZM31.8451 169.199C31.824 169.126 31.8287 169.048 31.8584 168.978C31.9024 168.904 31.9734 168.85 32.0564 168.828C32.1394 168.806 32.2277 168.817 32.3027 168.859C32.8796 169.118 33.4757 169.373 34.0738 169.595C34.1521 169.628 34.2149 169.689 34.2492 169.767C34.2834 169.844 34.2865 169.932 34.2578 170.012C34.244 170.052 34.2219 170.09 34.193 170.121C34.1641 170.153 34.129 170.178 34.0898 170.195C34.0507 170.212 34.0084 170.221 33.9656 170.222C33.9229 170.222 33.8805 170.213 33.8413 170.196C33.231 169.966 32.6735 169.701 32.0361 169.448C31.9758 169.437 31.9197 169.41 31.874 169.369C31.8284 169.328 31.795 169.275 31.7775 169.217L31.8451 169.199ZM16.4368 108.333C16.4219 108.288 16.4179 108.24 16.4251 108.193C16.4323 108.146 16.4506 108.101 16.4784 108.063C16.8526 107.528 17.2295 107.002 17.6282 106.481C17.6539 106.448 17.6859 106.42 17.7224 106.399C17.759 106.377 17.7993 106.364 17.8412 106.358C17.883 106.353 17.9255 106.356 17.9662 106.367C18.007 106.378 18.0451 106.397 18.0784 106.423C18.1471 106.476 18.192 106.554 18.2034 106.64C18.2149 106.726 18.1919 106.813 18.1395 106.883C17.7549 107.379 17.3781 107.904 17.0109 108.427C16.9669 108.501 16.8959 108.555 16.8129 108.577C16.7299 108.599 16.6416 108.588 16.5666 108.546C16.5221 108.529 16.4816 108.503 16.4476 108.469C16.4137 108.435 16.387 108.395 16.3692 108.351L16.4368 108.333ZM35.4586 170.591C35.4392 170.533 35.4408 170.47 35.4629 170.414C35.4897 170.332 35.5475 170.264 35.6239 170.224C35.7003 170.184 35.7892 170.176 35.8717 170.201C36.4742 170.402 37.0935 170.588 37.705 170.745C37.7461 170.755 37.7847 170.774 37.8186 170.799C37.8525 170.825 37.8809 170.857 37.9023 170.894C37.9237 170.93 37.9376 170.971 37.9432 171.013C37.9487 171.055 37.9459 171.098 37.9347 171.139C37.9113 171.22 37.8572 171.29 37.7839 171.333C37.7105 171.375 37.6234 171.388 37.5408 171.368C36.9145 171.195 36.2855 171.011 35.6689 170.835C35.6096 170.823 35.5547 170.795 35.5107 170.754C35.4666 170.713 35.4352 170.66 35.42 170.601L35.4586 170.591ZM18.7914 105.258C18.7768 105.207 18.7751 105.154 18.7865 105.102C18.798 105.05 18.8221 105.002 18.8568 104.961C19.2729 104.467 19.711 103.977 20.1543 103.506C20.2119 103.444 20.2917 103.408 20.3762 103.404C20.4606 103.401 20.543 103.431 20.6052 103.489C20.6679 103.548 20.7051 103.629 20.7088 103.715C20.7126 103.801 20.6825 103.885 20.6251 103.949C20.1889 104.408 19.7604 104.895 19.3417 105.38C19.3146 105.413 19.2812 105.44 19.2435 105.46C19.2059 105.48 19.1646 105.492 19.1222 105.495C19.0798 105.499 19.0371 105.494 18.9966 105.481C18.9561 105.468 18.9186 105.447 18.8863 105.419C18.8203 105.387 18.7642 105.338 18.7238 105.277L18.7914 105.258ZM39.1966 171.598C39.1707 171.554 39.1573 171.504 39.1577 171.453C39.1754 171.37 39.2252 171.297 39.2963 171.251C39.3674 171.205 39.4539 171.189 39.5368 171.206C40.1721 171.336 40.8048 171.457 41.4298 171.548C41.4714 171.554 41.5115 171.568 41.5476 171.589C41.5837 171.611 41.615 171.64 41.6396 171.674C41.6642 171.708 41.6816 171.746 41.6908 171.787C41.7 171.829 41.7008 171.871 41.693 171.912C41.6873 171.954 41.6733 171.994 41.652 172.03C41.6307 172.067 41.6024 172.098 41.5688 172.124C41.5352 172.149 41.4969 172.168 41.4562 172.178C41.4155 172.189 41.373 172.191 41.3314 172.185C40.6942 172.087 40.0518 171.969 39.4068 171.842C39.3437 171.835 39.2839 171.81 39.2346 171.77C39.1853 171.73 39.1486 171.676 39.1289 171.616L39.1966 171.598ZM21.4387 102.427C21.4246 102.372 21.4247 102.315 21.4391 102.26C21.4534 102.206 21.4816 102.156 21.5208 102.115C21.9952 101.67 22.4778 101.23 22.9686 100.795C23.0005 100.767 23.0376 100.746 23.0778 100.733C23.118 100.719 23.1604 100.714 23.2027 100.717C23.2449 100.72 23.2861 100.732 23.3239 100.751C23.3617 100.77 23.3953 100.797 23.4228 100.829C23.4506 100.861 23.4719 100.898 23.4853 100.938C23.4987 100.978 23.504 101.021 23.5009 101.063C23.4977 101.105 23.4863 101.146 23.4671 101.184C23.4479 101.222 23.4214 101.256 23.3892 101.283C22.9111 101.701 22.4284 102.141 21.9774 102.583C21.9468 102.613 21.9106 102.636 21.8708 102.652C21.8309 102.667 21.7884 102.675 21.7456 102.674C21.7029 102.673 21.6608 102.663 21.6218 102.645C21.5828 102.628 21.5478 102.602 21.5188 102.571C21.4565 102.547 21.4044 102.503 21.3711 102.445L21.4387 102.427ZM43.0371 172.215L43.0086 172.108C43.0182 172.023 43.0608 171.944 43.1274 171.89C43.194 171.835 43.2794 171.809 43.3652 171.816C43.8438 171.864 44.3296 171.899 44.8101 171.916L45.281 171.934C45.3656 171.938 45.4454 171.975 45.5028 172.037C45.5602 172.099 45.5906 172.182 45.5874 172.266C45.5869 172.309 45.5779 172.351 45.561 172.39C45.5441 172.429 45.5196 172.464 45.4889 172.494C45.4583 172.523 45.4221 172.546 45.3824 172.561C45.3427 172.577 45.3004 172.584 45.258 172.582L44.7871 172.564C44.2846 172.543 43.7989 172.508 43.3009 172.465C43.2194 172.467 43.1398 172.44 43.0766 172.389C43.0134 172.337 42.9708 172.265 42.9566 172.185L43.0371 172.215ZM46.9132 172.346L46.8924 172.269C46.8916 172.183 46.924 172.101 46.9826 172.039C47.0413 171.977 47.1217 171.94 47.207 171.936C47.8351 171.923 48.4799 171.895 49.1291 171.845C49.1706 171.842 49.2125 171.846 49.2521 171.859C49.2918 171.872 49.3285 171.893 49.36 171.92C49.3914 171.947 49.4171 171.981 49.4354 172.018C49.4536 172.056 49.4642 172.096 49.4663 172.138C49.4738 172.223 49.4475 172.307 49.3931 172.372C49.3387 172.437 49.2607 172.477 49.1763 172.485C48.5173 172.537 47.8629 172.568 47.2252 172.583C47.1818 172.592 47.137 172.593 47.0935 172.584C47.05 172.575 47.0087 172.558 46.9721 172.533C46.9354 172.508 46.9042 172.476 46.8802 172.439C46.8563 172.401 46.8401 172.36 46.8326 172.316L46.9132 172.346ZM50.7797 172.055L50.7668 172.007C50.7571 171.923 50.7809 171.839 50.8329 171.773C50.885 171.707 50.961 171.664 51.0446 171.653C51.711 171.564 52.3499 171.476 52.9613 171.388C53.0026 171.381 53.0449 171.382 53.0856 171.392C53.1264 171.401 53.1648 171.419 53.1986 171.444C53.2323 171.468 53.2607 171.5 53.282 171.536C53.3032 171.572 53.317 171.612 53.3223 171.654C53.3296 171.695 53.3285 171.738 53.3192 171.779C53.3099 171.82 53.2925 171.859 53.2681 171.894C53.2436 171.928 53.2126 171.958 53.1768 171.98C53.1409 172.002 53.101 172.017 53.0593 172.024C52.4134 172.125 51.7745 172.213 51.1233 172.295C51.0777 172.313 51.0285 172.32 50.9797 172.315C50.9308 172.311 50.8838 172.295 50.8424 172.268C50.801 172.242 50.7664 172.206 50.7415 172.164C50.7166 172.122 50.7021 172.074 50.6991 172.025L50.7797 172.055ZM54.6046 171.455C54.5974 171.413 54.5984 171.371 54.6077 171.329C54.617 171.288 54.6344 171.249 54.6589 171.215C54.6833 171.18 54.7144 171.151 54.7502 171.129C54.786 171.106 54.8259 171.091 54.8676 171.084C55.4858 170.919 56.1247 170.83 56.7507 170.694C56.7925 170.684 56.8358 170.682 56.8781 170.689C56.9204 170.697 56.9609 170.712 56.997 170.736C57.0332 170.759 57.0643 170.789 57.0885 170.824C57.1128 170.86 57.1296 170.9 57.1381 170.942C57.148 170.984 57.1494 171.027 57.1422 171.069C57.135 171.112 57.1193 171.152 57.0962 171.188C57.073 171.224 57.0428 171.255 57.0074 171.28C56.972 171.304 56.932 171.321 56.8899 171.329C56.2621 171.497 55.6161 171.598 54.985 171.715C54.9359 171.739 54.8816 171.751 54.827 171.748C54.7725 171.745 54.7196 171.728 54.6734 171.699C54.6272 171.67 54.5892 171.629 54.5631 171.581C54.5369 171.533 54.5235 171.479 54.5241 171.425L54.6046 171.455ZM58.3919 170.637C58.3808 170.596 58.3783 170.553 58.3845 170.511C58.3906 170.469 58.4053 170.429 58.4277 170.393C58.4501 170.357 58.4796 170.325 58.5145 170.301C58.5494 170.277 58.5888 170.26 58.6304 170.252C59.2583 170.084 59.8765 169.918 60.4947 169.752C60.5767 169.731 60.664 169.742 60.7375 169.784C60.811 169.827 60.8646 169.897 60.8866 169.979C60.8962 170.02 60.8977 170.062 60.8909 170.104C60.8841 170.145 60.8692 170.185 60.8471 170.221C60.8249 170.256 60.796 170.287 60.7618 170.312C60.7277 170.336 60.689 170.354 60.6481 170.364C60.0299 170.529 59.402 170.697 58.7742 170.866C58.7274 170.889 58.6756 170.901 58.6232 170.9C58.5709 170.899 58.5196 170.885 58.474 170.859C58.4283 170.834 58.3896 170.797 58.3612 170.753C58.3329 170.709 58.3157 170.659 58.3114 170.607L58.3919 170.637ZM62.1552 169.691C62.1333 169.609 62.1433 169.523 62.183 169.449C62.2228 169.374 62.2894 169.318 62.3693 169.292C62.9585 169.134 63.5767 168.968 64.198 168.698C64.2796 168.67 64.3687 168.676 64.4464 168.713C64.524 168.75 64.5841 168.816 64.6137 168.897C64.6388 168.979 64.6322 169.067 64.5953 169.144C64.5584 169.221 64.4938 169.281 64.4145 169.313C63.7732 169.547 63.1435 169.747 62.5085 169.927C62.4266 169.949 62.3392 169.938 62.2657 169.895C62.1922 169.853 62.1386 169.783 62.1166 169.701L62.1552 169.691ZM65.8009 168.382C65.78 168.307 65.7876 168.226 65.8222 168.156C65.8568 168.086 65.916 168.03 65.9885 168.001C66.5641 167.753 67.1468 167.494 67.7436 167.21C67.8216 167.174 67.9107 167.169 67.9918 167.198C68.0729 167.226 68.1397 167.285 68.1779 167.362C68.2141 167.441 68.2183 167.53 68.1898 167.611C68.1612 167.692 68.1022 167.759 68.0251 167.797C67.4187 168.084 66.8264 168.346 66.2411 168.596C66.1609 168.629 66.0708 168.629 65.9903 168.597C65.9098 168.564 65.8455 168.501 65.8113 168.421L65.8009 168.382ZM69.3122 166.727C69.292 166.656 69.2982 166.579 69.3295 166.512C69.3609 166.445 69.4154 166.391 69.4831 166.361C70.036 166.067 70.6057 165.759 71.1729 165.442C71.2494 165.399 71.3396 165.389 71.4237 165.413C71.5078 165.437 71.5789 165.494 71.6214 165.57C71.6606 165.646 71.6688 165.734 71.6444 165.816C71.62 165.898 71.5648 165.967 71.4905 166.009C70.9137 166.329 70.344 166.637 69.7717 166.935C69.6951 166.972 69.6076 166.977 69.5272 166.95C69.4468 166.923 69.3798 166.867 69.3399 166.792L69.3122 166.727ZM72.6982 164.836C72.6814 164.768 72.6872 164.696 72.7144 164.631C72.7417 164.566 72.7891 164.511 72.8497 164.475C73.395 164.153 73.9447 163.809 74.4944 163.465C74.5294 163.441 74.569 163.425 74.6105 163.417C74.6521 163.409 74.6949 163.41 74.7362 163.419C74.7775 163.429 74.8164 163.446 74.8506 163.471C74.8849 163.496 74.9136 163.528 74.9351 163.564C74.9588 163.599 74.9751 163.639 74.9829 163.68C74.9908 163.722 74.99 163.765 74.9807 163.806C74.9714 163.847 74.9537 163.886 74.9288 163.92C74.9039 163.955 74.8722 163.983 74.8358 164.005C74.2886 164.359 73.739 164.703 73.1841 165.027C73.1479 165.05 73.1077 165.064 73.0657 165.071C73.0237 165.078 72.9808 165.076 72.9396 165.066C72.8983 165.056 72.8595 165.037 72.8253 165.012C72.7912 164.987 72.7625 164.955 72.7408 164.918L72.6982 164.836ZM75.9693 162.749C75.9503 162.683 75.9529 162.613 75.9767 162.549C76.0006 162.485 76.0443 162.43 76.1015 162.392C76.6364 162.032 77.159 161.664 77.679 161.286C77.7129 161.261 77.7515 161.242 77.7927 161.231C77.8338 161.22 77.8767 161.218 77.9189 161.224C77.961 161.23 78.0015 161.244 78.0379 161.266C78.0744 161.288 78.1062 161.317 78.1313 161.352C78.1807 161.422 78.2005 161.509 78.1865 161.594C78.1725 161.679 78.1259 161.755 78.0565 161.806C77.5365 162.184 77.0068 162.564 76.4623 162.927C76.3929 162.976 76.3071 162.995 76.2236 162.981C76.1402 162.966 76.0659 162.919 76.017 162.85L75.9693 162.749ZM79.1036 160.46C79.0876 160.398 79.0901 160.332 79.1106 160.272C79.1311 160.211 79.1688 160.158 79.2191 160.118C79.734 159.721 80.2366 159.317 80.7173 158.909C80.7492 158.88 80.7869 158.858 80.8278 158.844C80.8688 158.831 80.9122 158.826 80.9552 158.83C80.9982 158.834 81.0399 158.847 81.0776 158.868C81.1153 158.889 81.1481 158.918 81.174 158.952C81.2015 158.984 81.2224 159.02 81.2355 159.059C81.2486 159.099 81.2536 159.141 81.2503 159.182C81.2469 159.224 81.2352 159.264 81.2159 159.301C81.1966 159.338 81.17 159.37 81.1378 159.397C80.6404 159.82 80.1378 160.224 79.6159 160.633C79.5827 160.659 79.5448 160.678 79.5042 160.689C79.4637 160.7 79.4213 160.704 79.3795 160.698C79.3378 160.693 79.2974 160.68 79.2608 160.659C79.2242 160.638 79.1921 160.611 79.1662 160.577L79.1036 160.46ZM79.3343 151.391C79.166 150.763 79.0821 150.102 78.9938 149.463C78.9862 149.421 78.9874 149.378 78.9973 149.336C79.0073 149.294 79.0258 149.255 79.0517 149.221C79.0775 149.187 79.1102 149.158 79.1476 149.138C79.1851 149.117 79.2264 149.104 79.269 149.1C79.311 149.093 79.3538 149.096 79.395 149.106C79.4361 149.117 79.4746 149.135 79.5085 149.161C79.5423 149.187 79.5707 149.219 79.5921 149.255C79.6134 149.292 79.6272 149.333 79.6327 149.375C79.7159 149.994 79.8358 150.635 79.9699 151.252C79.9798 151.293 79.9812 151.337 79.974 151.379C79.9668 151.421 79.9511 151.462 79.928 151.498C79.9048 151.534 79.8746 151.565 79.8392 151.589C79.8037 151.614 79.7638 151.63 79.7217 151.639C79.673 151.661 79.6196 151.672 79.5661 151.669C79.5125 151.666 79.4604 151.651 79.4143 151.623C79.3683 151.596 79.3295 151.557 79.3015 151.512C79.2736 151.466 79.2572 151.414 79.2537 151.361L79.3343 151.391ZM79.8364 153.265C79.8122 153.185 79.82 153.099 79.8581 153.025C79.8963 152.951 79.9618 152.895 80.0408 152.868C80.123 152.843 80.2117 152.852 80.288 152.891C80.3643 152.931 80.4222 152.998 80.4494 153.08C80.6176 153.708 80.8702 154.302 81.115 154.868C81.1458 154.949 81.1448 155.038 81.1124 155.118C81.08 155.198 81.0185 155.262 80.9403 155.298C80.9011 155.315 80.8591 155.323 80.8167 155.323C80.7742 155.323 80.7322 155.314 80.6931 155.298C80.654 155.281 80.6186 155.257 80.5889 155.227C80.5592 155.196 80.5358 155.16 80.5201 155.121C80.2701 154.536 80.0414 153.914 79.8286 153.236L79.8364 153.265ZM78.8137 147.555L78.7956 147.487C78.7626 146.83 78.7694 146.171 78.8158 145.515C78.8212 145.429 78.86 145.348 78.9238 145.291C78.9876 145.233 79.0715 145.203 79.1575 145.206C79.1998 145.208 79.2413 145.219 79.2793 145.238C79.3174 145.257 79.3514 145.283 79.3792 145.315C79.4071 145.347 79.4283 145.385 79.4416 145.425C79.4549 145.465 79.4601 145.508 79.4568 145.55C79.413 146.186 79.4075 146.823 79.4404 147.459C79.4421 147.502 79.4352 147.545 79.4203 147.584C79.4053 147.624 79.3825 147.661 79.3532 147.692C79.3238 147.723 79.2886 147.748 79.2496 147.765C79.2105 147.782 79.1684 147.791 79.1258 147.792C79.0827 147.801 79.0383 147.801 78.9952 147.792C78.9522 147.783 78.9114 147.766 78.8755 147.74C78.8395 147.715 78.8092 147.683 78.7864 147.645C78.7636 147.608 78.7487 147.566 78.7428 147.522L78.8137 147.555ZM81.366 156.81C81.3476 156.741 81.3525 156.668 81.3799 156.603C81.4074 156.537 81.4558 156.483 81.5176 156.448C81.592 156.409 81.6787 156.399 81.7598 156.422C81.8409 156.445 81.9103 156.497 81.9538 156.569C82.1113 156.848 82.2881 157.122 82.4598 157.376C82.8323 157.027 83.2023 156.67 83.553 156.317C83.6147 156.255 83.6984 156.22 83.7857 156.22C83.873 156.22 83.9568 156.255 84.0187 156.316C84.0749 156.379 84.1058 156.46 84.1055 156.545C84.1051 156.629 84.0734 156.71 84.0167 156.772C83.6396 157.142 83.2459 157.527 82.8302 157.908L83.0134 158.128C83.0665 158.196 83.0907 158.283 83.0808 158.369C83.0709 158.455 83.0277 158.533 82.9605 158.587C82.9273 158.613 82.8894 158.633 82.8488 158.644C82.8083 158.655 82.7659 158.658 82.7241 158.653C82.6823 158.648 82.642 158.635 82.6054 158.614C82.5688 158.593 82.5366 158.565 82.5108 158.532L82.216 158.166L82.147 158.101C82.119 158.051 82.1039 157.995 82.103 157.937C81.8694 157.606 81.6499 157.251 81.4376 156.884L81.366 156.81ZM79.1054 143.698C79.0827 143.653 79.0695 143.603 79.0666 143.553C79.2075 142.892 79.4366 142.252 79.7478 141.652C79.7918 141.578 79.8628 141.524 79.9458 141.502C80.0287 141.48 80.1171 141.491 80.1921 141.533C80.2296 141.554 80.2625 141.582 80.289 141.616C80.3154 141.65 80.3347 141.688 80.3458 141.73C80.3569 141.771 80.3596 141.814 80.3536 141.857C80.3477 141.899 80.3332 141.94 80.3111 141.977C80.033 142.529 79.8245 143.114 79.6903 143.717C79.6818 143.758 79.6649 143.797 79.6409 143.832C79.6168 143.866 79.586 143.895 79.5503 143.917C79.5146 143.94 79.4747 143.954 79.4332 143.961C79.3917 143.967 79.3493 143.965 79.3086 143.954C79.237 143.944 79.1709 143.91 79.1211 143.857C79.0714 143.805 79.0408 143.737 79.0345 143.665L79.1054 143.698ZM83.8103 159.788C83.7968 159.74 83.7951 159.689 83.8052 159.639C83.8153 159.59 83.837 159.543 83.8685 159.504C83.9233 159.439 84.0008 159.398 84.0852 159.389C84.1695 159.38 84.254 159.403 84.3213 159.455C84.6766 159.742 85.0651 159.986 85.4785 160.18C85.6203 160.246 85.7646 160.321 85.9161 160.384C85.9869 160.428 86.0383 160.497 86.0599 160.578C86.0815 160.659 86.0717 160.745 86.0325 160.818C86.0117 160.856 85.9835 160.889 85.9497 160.915C85.9159 160.942 85.8771 160.961 85.8356 160.972C85.7942 160.983 85.7509 160.986 85.7084 160.98C85.6659 160.974 85.625 160.959 85.5882 160.937C85.4368 160.874 85.2924 160.799 85.1383 160.727C84.6938 160.499 84.2738 160.227 83.8851 159.913C83.8216 159.877 83.7708 159.822 83.7394 159.756L83.8103 159.788ZM84.8129 155.223C84.7983 155.172 84.7966 155.118 84.808 155.067C84.8194 155.015 84.8436 154.967 84.8783 154.926C85.3234 154.424 85.7396 153.929 86.1075 153.448C86.1636 153.382 86.2426 153.34 86.3285 153.331C86.4144 153.321 86.5007 153.345 86.5699 153.396C86.6031 153.423 86.6307 153.455 86.6511 153.493C86.6715 153.53 86.6844 153.57 86.689 153.613C86.6935 153.655 86.6896 153.697 86.6776 153.738C86.6655 153.779 86.6455 153.816 86.6188 153.849C86.2438 154.343 85.8495 154.842 85.3658 155.355C85.3068 155.418 85.2256 155.455 85.1395 155.458C85.0535 155.462 84.9694 155.432 84.9052 155.375C84.8649 155.36 84.8289 155.335 84.8005 155.303C84.772 155.271 84.7519 155.232 84.742 155.191L84.8129 155.223ZM81.045 140.466C81.0266 140.397 81.0315 140.324 81.0589 140.259C81.0863 140.194 81.1348 140.139 81.1965 140.104C81.405 139.986 81.6276 139.895 81.8591 139.833C82.3263 139.715 82.8139 139.701 83.2871 139.793C83.3288 139.8 83.3685 139.816 83.404 139.839C83.4395 139.862 83.4701 139.892 83.4939 139.927C83.5177 139.962 83.5344 140.002 83.5428 140.043C83.5513 140.085 83.5515 140.127 83.5433 140.169C83.5365 140.21 83.5216 140.249 83.4993 140.285C83.477 140.32 83.4479 140.35 83.4137 140.374C83.3794 140.397 83.3408 140.414 83.3 140.422C83.2593 140.431 83.2172 140.431 83.1764 140.423C82.7949 140.355 82.4034 140.368 82.0273 140.461C81.8473 140.507 81.6746 140.578 81.5141 140.671C81.4776 140.692 81.4372 140.705 81.3955 140.71C81.3538 140.716 81.3114 140.712 81.2709 140.701C81.2304 140.69 81.1925 140.671 81.1594 140.645C81.1263 140.619 81.0986 140.587 81.0779 140.55L81.045 140.466ZM87.2573 161.525C87.2396 161.46 87.2427 161.39 87.2661 161.326C87.2802 161.286 87.3021 161.249 87.3307 161.218C87.3592 161.186 87.3938 161.161 87.4324 161.143C87.4709 161.125 87.5127 161.114 87.5552 161.113C87.5977 161.111 87.6402 161.118 87.68 161.133C88.2781 161.355 88.8903 161.554 89.494 161.682C89.5345 161.693 89.5724 161.713 89.6054 161.739C89.6385 161.765 89.666 161.798 89.6864 161.834C89.7069 161.871 89.7199 161.912 89.7246 161.954C89.7294 161.996 89.7258 162.038 89.7141 162.078C89.7026 162.119 89.6832 162.157 89.6571 162.19C89.6309 162.223 89.5984 162.25 89.5616 162.271C89.5247 162.291 89.4842 162.304 89.4424 162.309C89.4005 162.314 89.3581 162.31 89.3176 162.299C88.6939 162.134 88.0694 161.929 87.4495 161.702C87.3902 161.696 87.3338 161.673 87.2871 161.636C87.2405 161.599 87.2055 161.549 87.1864 161.493L87.2573 161.525ZM87.1797 152.156C87.1682 152.112 87.1661 152.066 87.1737 152.021C87.1813 151.977 87.1984 151.934 87.2239 151.896C87.5657 151.364 87.874 150.811 88.1469 150.241C88.1909 150.167 88.2619 150.113 88.3449 150.091C88.4279 150.069 88.5162 150.08 88.5912 150.122C88.6639 150.164 88.717 150.234 88.7388 150.315C88.7606 150.396 88.7494 150.483 88.7077 150.556C88.4206 151.151 88.0982 151.729 87.7422 152.285C87.7214 152.323 87.6932 152.356 87.6594 152.382C87.6256 152.408 87.5868 152.428 87.5453 152.439C87.5039 152.45 87.4606 152.453 87.4181 152.447C87.3756 152.441 87.3347 152.426 87.2979 152.404C87.2433 152.38 87.1967 152.34 87.1632 152.291C87.1298 152.241 87.111 152.183 87.1088 152.124L87.1797 152.156ZM84.7268 140.877C84.7066 140.799 84.7138 140.717 84.7471 140.644C84.7928 140.572 84.8638 140.52 84.9461 140.498C85.0284 140.475 85.116 140.485 85.1915 140.525C85.7871 140.822 86.3576 141.168 86.8971 141.558C86.931 141.583 86.9597 141.615 86.9814 141.651C87.0032 141.687 87.0177 141.726 87.024 141.768C87.0303 141.81 87.0284 141.852 87.0183 141.893C87.0083 141.934 86.9903 141.972 86.9653 142.006C86.9136 142.075 86.8367 142.122 86.7512 142.135C86.6656 142.148 86.5783 142.127 86.508 142.077C86.0019 141.709 85.4648 141.385 84.9029 141.109C84.8415 141.092 84.786 141.058 84.7425 141.011C84.6989 140.964 84.669 140.907 84.6559 140.844L84.7268 140.877ZM90.9882 162.545C90.9671 162.502 90.9548 162.456 90.9519 162.409C90.9596 162.368 90.9755 162.328 90.9986 162.292C91.0217 162.257 91.0516 162.226 91.0867 162.203C91.1217 162.179 91.1611 162.162 91.2026 162.154C91.2441 162.145 91.2869 162.145 91.3285 162.153C91.9586 162.264 92.5906 162.343 93.2271 162.4C93.3115 162.408 93.3893 162.449 93.4436 162.514C93.4979 162.579 93.5242 162.663 93.5167 162.747C93.5141 162.789 93.5031 162.831 93.4843 162.869C93.4655 162.907 93.4393 162.941 93.4073 162.969C93.3753 162.997 93.338 163.018 93.2977 163.031C93.2574 163.044 93.2148 163.05 93.1725 163.046C92.5141 162.985 91.8602 162.901 91.2178 162.783C91.1435 162.782 91.0722 162.753 91.0171 162.703C90.9619 162.654 90.9265 162.586 90.9173 162.512L90.9882 162.545ZM88.8039 148.636C88.7918 148.58 88.7942 148.523 88.8108 148.468C88.9764 147.876 89.0631 147.265 89.0689 146.65C89.0685 146.608 89.0764 146.566 89.0921 146.527C89.1078 146.488 89.1311 146.452 89.1605 146.422C89.19 146.392 89.2251 146.369 89.2638 146.352C89.3025 146.336 89.344 146.327 89.3861 146.327C89.4285 146.325 89.4708 146.332 89.5104 146.347C89.5501 146.362 89.5861 146.385 89.6164 146.415C89.6467 146.445 89.6706 146.48 89.6865 146.52C89.7025 146.559 89.7102 146.601 89.7092 146.644C89.7057 147.319 89.6143 147.991 89.4372 148.642C89.4123 148.725 89.3557 148.795 89.2797 148.837C89.2037 148.879 89.1144 148.889 89.031 148.865C88.9631 148.86 88.8986 148.834 88.8462 148.79C88.7938 148.747 88.7561 148.688 88.7382 148.623L88.8039 148.636ZM87.7951 143.171C87.7798 143.11 87.7816 143.046 87.8003 142.986C87.819 142.927 87.8538 142.873 87.901 142.832C87.9666 142.779 88.0503 142.755 88.1339 142.763C88.2176 142.772 88.2945 142.813 88.3481 142.878C88.7926 143.412 89.141 144.019 89.3777 144.672C89.3925 144.712 89.3994 144.754 89.3979 144.796C89.3964 144.839 89.3866 144.88 89.369 144.918C89.3514 144.957 89.3263 144.991 89.2953 145.02C89.2642 145.049 89.2278 145.071 89.1881 145.086C89.1487 145.102 89.1063 145.11 89.0637 145.109C89.021 145.108 88.979 145.099 88.9402 145.081C88.9014 145.063 88.8667 145.038 88.8383 145.006C88.8099 144.974 88.7883 144.937 88.775 144.896C88.5587 144.324 88.2516 143.791 87.8655 143.318C87.8028 143.282 87.7547 143.225 87.7294 143.157L87.7951 143.171ZM94.838 162.849L94.8173 162.771C94.8184 162.685 94.8533 162.603 94.9144 162.542C94.9754 162.481 95.0579 162.446 95.1442 162.446C95.7748 162.442 96.417 162.405 97.0417 162.341C97.0841 162.336 97.1271 162.339 97.1681 162.351C97.2091 162.363 97.2474 162.383 97.2806 162.409C97.3138 162.436 97.3413 162.469 97.3616 162.507C97.3818 162.545 97.3943 162.586 97.3983 162.628C97.4058 162.713 97.3801 162.798 97.3265 162.865C97.2729 162.931 97.1955 162.974 97.1108 162.985C96.4667 163.054 95.8026 163.087 95.1527 163.095C95.0678 163.11 94.9806 163.091 94.9095 163.043C94.8384 162.994 94.7892 162.92 94.7723 162.835L94.838 162.849ZM98.6954 162.446C98.6855 162.405 98.6841 162.361 98.6913 162.319C98.6985 162.277 98.7142 162.236 98.7373 162.2C98.7605 162.164 98.7907 162.133 98.8261 162.109C98.8616 162.084 98.9015 162.068 98.9436 162.059C99.3396 161.953 99.726 161.849 100.122 161.743C100.344 161.684 100.566 161.624 100.789 161.565C100.829 161.553 100.871 161.548 100.913 161.553C100.955 161.557 100.995 161.569 101.032 161.589C101.069 161.609 101.102 161.636 101.129 161.668C101.155 161.701 101.175 161.738 101.187 161.779C101.201 161.819 101.207 161.862 101.203 161.905C101.2 161.948 101.188 161.99 101.168 162.028C101.149 162.066 101.122 162.1 101.088 162.127C101.055 162.155 101.017 162.175 100.976 162.187C100.744 162.249 100.522 162.309 100.29 162.371C99.8846 162.48 99.4789 162.589 99.0732 162.697C99.0269 162.717 98.9766 162.725 98.9265 162.722C98.8763 162.718 98.8277 162.703 98.7845 162.678C98.7413 162.652 98.7048 162.616 98.6779 162.574C98.651 162.531 98.6345 162.483 98.6297 162.433L98.6954 162.446ZM102.4 161.319C102.379 161.244 102.387 161.163 102.421 161.093C102.456 161.022 102.515 160.967 102.588 160.938C103.166 160.7 103.746 160.431 104.318 160.132C104.356 160.113 104.397 160.102 104.439 160.099C104.481 160.095 104.524 160.101 104.564 160.114C104.604 160.127 104.641 160.148 104.673 160.176C104.705 160.204 104.731 160.238 104.75 160.275C104.788 160.35 104.796 160.437 104.771 160.517C104.746 160.598 104.691 160.665 104.616 160.705C104.025 161.008 103.428 161.292 102.83 161.535C102.791 161.551 102.749 161.56 102.707 161.56C102.664 161.56 102.622 161.551 102.583 161.535C102.544 161.518 102.509 161.494 102.479 161.464C102.449 161.433 102.426 161.397 102.41 161.358L102.4 161.319ZM105.836 159.539C105.808 159.486 105.796 159.425 105.802 159.364C105.808 159.304 105.831 159.246 105.869 159.199C106.4 158.86 106.932 158.49 107.44 158.105C107.473 158.079 107.511 158.06 107.551 158.049C107.592 158.038 107.634 158.035 107.676 158.04C107.718 158.045 107.758 158.058 107.795 158.079C107.831 158.1 107.864 158.128 107.889 158.161C107.94 158.231 107.961 158.318 107.95 158.404C107.938 158.49 107.894 158.568 107.827 158.623C107.312 159.02 106.76 159.395 106.223 159.746C106.149 159.792 106.059 159.806 105.975 159.786C105.89 159.766 105.816 159.714 105.77 159.64L105.836 159.539ZM108.911 157.183C108.896 157.127 108.896 157.068 108.912 157.013C108.928 156.957 108.96 156.907 109.003 156.869C109.478 156.441 109.927 155.989 110.361 155.521C110.421 155.459 110.503 155.423 110.59 155.421C110.677 155.419 110.761 155.452 110.824 155.511C110.855 155.54 110.881 155.574 110.898 155.613C110.916 155.652 110.925 155.694 110.926 155.736C110.927 155.779 110.919 155.821 110.902 155.86C110.886 155.9 110.862 155.935 110.831 155.965C110.391 156.445 109.923 156.902 109.448 157.371C109.384 157.428 109.299 157.458 109.213 157.454C109.127 157.45 109.046 157.412 108.987 157.349L108.911 157.183ZM111.549 154.354C111.538 154.306 111.538 154.257 111.548 154.21C111.559 154.162 111.58 154.117 111.61 154.079C112.004 153.58 112.371 153.057 112.726 152.527C112.77 152.453 112.841 152.4 112.924 152.377C113.007 152.355 113.095 152.366 113.17 152.408C113.208 152.429 113.241 152.457 113.267 152.491C113.294 152.525 113.313 152.563 113.324 152.605C113.335 152.646 113.338 152.69 113.332 152.732C113.326 152.775 113.312 152.816 113.29 152.852C112.928 153.394 112.541 153.922 112.14 154.434C112.086 154.502 112.008 154.547 111.922 154.559C111.836 154.57 111.749 154.547 111.68 154.495C111.598 154.469 111.528 154.414 111.483 154.341L111.549 154.354ZM113.688 151.131C113.677 151.091 113.674 151.05 113.679 151.01C113.684 150.969 113.697 150.93 113.718 150.895C114.023 150.337 114.315 149.762 114.574 149.185C114.591 149.146 114.615 149.112 114.646 149.082C114.676 149.053 114.712 149.03 114.751 149.015C114.79 149 114.832 148.992 114.874 148.993C114.916 148.994 114.957 149.003 114.996 149.02C115.034 149.037 115.069 149.061 115.098 149.092C115.127 149.122 115.15 149.158 115.166 149.197C115.181 149.236 115.188 149.278 115.187 149.32C115.187 149.362 115.177 149.403 115.161 149.442C114.897 150.041 114.598 150.628 114.288 151.208C114.244 151.282 114.173 151.335 114.09 151.358C114.007 151.38 113.919 151.369 113.844 151.327C113.794 151.31 113.748 151.282 113.71 151.246C113.672 151.21 113.642 151.166 113.622 151.117L113.688 151.131ZM115.268 147.601C115.254 147.54 115.255 147.476 115.27 147.415C115.48 146.809 115.669 146.2 115.816 145.591C115.826 145.549 115.843 145.51 115.868 145.475C115.893 145.44 115.925 145.411 115.961 145.389C115.998 145.366 116.038 145.351 116.081 145.345C116.123 145.339 116.166 145.341 116.208 145.351C116.29 145.373 116.362 145.426 116.406 145.499C116.451 145.572 116.466 145.659 116.447 145.743C116.286 146.376 116.102 147.005 115.913 147.615C115.9 147.655 115.879 147.693 115.851 147.726C115.823 147.758 115.789 147.784 115.751 147.803C115.712 147.822 115.671 147.833 115.628 147.836C115.585 147.838 115.542 147.832 115.502 147.818C115.43 147.821 115.359 147.8 115.3 147.757C115.242 147.714 115.199 147.653 115.18 147.583L115.268 147.601ZM116.197 143.843L116.166 143.727C116.265 143.096 116.329 142.46 116.359 141.822C116.367 141.737 116.407 141.659 116.471 141.603C116.536 141.547 116.619 141.519 116.704 141.523C116.789 141.528 116.87 141.567 116.927 141.631C116.985 141.694 117.016 141.778 117.013 141.864C116.968 142.508 116.906 143.166 116.81 143.813C116.797 143.899 116.75 143.975 116.681 144.027C116.611 144.078 116.524 144.101 116.439 144.089C116.364 144.087 116.291 144.06 116.235 144.01C116.178 143.961 116.14 143.894 116.128 143.82L116.197 143.843Z" fill="#999999"/>
</svg>
